solid Onshape
  facet normal 0 0 -1
    outer loop
      vertex 25 12 0
      vertex 25 -12 0
      vertex -25 12 0
    endloop
  endfacet
  facet normal 0 0 -1
    outer loop
      vertex 25 -12 0
      vertex -25 -12 0
      vertex -25 12 0
    endloop
  endfacet
  facet normal 0 0 1
    outer loop
      vertex 25 -12 0.17
      vertex 25 12 0.17
      vertex -25 -12 0.17
    endloop
  endfacet
  facet normal 0 0 1
    outer loop
      vertex 25 12 0.17
      vertex -25 12 0.17
      vertex -25 -12 0.17
    endloop
  endfacet
  facet normal 0 1 0
    outer loop
      vertex -25 12 0.17
      vertex 25 12 0.17
      vertex -25 12 0
    endloop
  endfacet
  facet normal 0 1 0
    outer loop
      vertex 25 12 0.17
      vertex 25 12 0
      vertex -25 12 0
    endloop
  endfacet
  facet normal 1 0 0
    outer loop
      vertex 25 12 0.17
      vertex 25 -12 0.17
      vertex 25 12 0
    endloop
  endfacet
  facet normal 1 0 0
    outer loop
      vertex 25 -12 0.17
      vertex 25 -12 0
      vertex 25 12 0
    endloop
  endfacet
  facet normal -1 0 0
    outer loop
      vertex -25 -12 0.17
      vertex -25 12 0.17
      vertex -25 -12 0
    endloop
  endfacet
  facet normal -1 0 0
    outer loop
      vertex -25 12 0.17
      vertex -25 12 0
      vertex -25 -12 0
    endloop
  endfacet
  facet normal 0 -1 0
    outer loop
      vertex 25 -12 0.17
      vertex -25 -12 0.17
      vertex 25 -12 0
    endloop
  endfacet
  facet normal 0 -1 0
    outer loop
      vertex -25 -12 0.17
      vertex -25 -12 0
      vertex 25 -12 0
    endloop
  endfacet
endsolid Onshape
